<?xml version="1.0" standalone="no"?>
<!DOCTYPE svg PUBLIC "-//W3C//DTD SVG 20010904//EN"
  "http://www.w3.org/TR/2001/REC-SVG-20010904/DTD/svg10.dtd">
<svg version="1.0" xmlns="http://www.w3.org/2000/svg"
     width="1584.000000pt" height="1584.000000pt" viewBox="0 0 1584.000000 1584.000000"
     preserveAspectRatio="xMidYMid meet">
  <metadata>
    Created by potrace 1.11, written by Peter Selinger 2001-2013
  </metadata>
  <g transform="translate(0.000000,1584.000000) scale(0.100000,-0.100000)"
     fill="#000000" stroke="none">
    <path d="M9800 12278 c-24 -46 -60 -114 -80 -153 -133 -251 -212 -402 -298
-565 -39 -74 -82 -155 -95 -180 -14 -25 -44 -83 -68 -130 -24 -47 -48 -88 -54
-92 -5 -4 -6 -8 -1 -8 5 0 4 -6 -2 -12 -5 -7 -31 -53 -57 -103 -92 -175 -148
-281 -190 -360 -23 -44 -68 -129 -100 -190 -32 -60 -77 -146 -99 -190 -23 -44
-45 -84 -49 -90 -8 -10 -86 -160 -154 -295 -21 -41 -40 -77 -43 -80 -3 -3 -25
-43 -49 -90 -24 -47 -60 -116 -81 -155 -35 -65 -79 -148 -195 -370 -26 -49
-67 -127 -92 -173 -24 -45 -66 -124 -92 -175 -104 -201 -149 -281 -157 -284
-7 -2 -140 207 -153 242 -2 5 -16 28 -31 50 -15 22 -37 56 -47 75 -11 19 -70
118 -132 219 -61 101 -111 187 -111 191 0 4 -6 13 -14 19 -8 7 -27 35 -41 63
-15 28 -33 58 -41 65 -8 8 -14 21 -14 29 0 8 -4 14 -10 14 -5 0 -10 4 -10 9 0
5 -50 92 -112 193 -61 100 -118 197 -127 213 -9 17 -19 32 -23 33 -5 2 -8 10
-8 18 0 8 -4 14 -8 14 -4 0 -19 22 -33 50 -13 27 -27 50 -31 50 -5 0 -8 5 -8
11 0 6 -13 31 -30 56 -16 24 -30 48 -30 54 0 5 -4 9 -9 9 -5 0 -12 11 -15 25
-4 14 -11 25 -16 25 -6 0 -10 4 -10 9 0 8 -63 115 -122 209 -10 15 -22 36 -28
47 -5 11 -24 44 -42 72 -18 29 -71 116 -118 193 -47 77 -95 157 -108 178 -13
20 -25 45 -29 55 -3 9 -9 17 -14 17 -5 0 -9 7 -9 15 0 8 -4 15 -9 15 -5 0 -11
8 -14 18 -8 22 -55 103 -73 123 -8 8 -14 18 -14 21 0 3 -47 83 -105 178 -58
94 -105 176 -105 181 0 5 -4 9 -10 9 -5 0 -10 7 -10 15 0 8 -4 15 -8 15 -4 0
-13 12 -19 28 -7 15 -18 36 -25 47 -7 11 -25 39 -40 62 -16 23 -28 45 -28 48
0 4 -15 30 -34 58 -19 29 -40 64 -47 80 -7 15 -16 27 -21 27 -4 0 -8 5 -8 10
0 6 -16 36 -35 66 -19 30 -35 59 -35 64 0 6 -3 10 -8 10 -4 0 -13 13 -20 29
-17 39 -62 86 -70 74 -7 -10 -58 -11 -68 -1 -3 4 -19 2 -35 -2 -16 -5 -42 -5
-58 0 -16 4 -32 6 -35 3 -7 -7 -243 -6 -255 2 -6 3 -11 2 -11 -2 0 -5 -15 -7
-32 -6 -60 3 -93 4 -151 3 -32 0 -62 2 -66 5 -5 3 -11 1 -13 -4 -1 -5 -23 -6
-48 -2 -25 4 -58 4 -75 1 -16 -3 -49 -3 -72 1 -24 3 -43 3 -43 -1 0 -9 -57 -6
-66 3 -3 3 -19 1 -35 -3 -16 -5 -42 -5 -58 0 -16 4 -32 6 -35 3 -7 -7 -243 -6
-255 2 -6 3 -11 2 -11 -2 0 -5 -15 -7 -33 -6 -59 3 -92 4 -150 3 -32 0 -62 2
-66 5 -5 3 -11 1 -13 -4 -1 -5 -23 -6 -48 -2 -25 4 -58 4 -75 1 -16 -3 -49 -3
-73 1 -23 3 -42 3 -42 -1 0 -9 -57 -6 -66 3 -3 3 -19 1 -35 -3 -16 -5 -42 -5
-58 0 -16 4 -32 6 -35 3 -7 -7 -243 -6 -255 2 -6 3 -11 2 -11 -2 0 -5 -15 -7
-32 -6 -60 3 -93 4 -151 3 -32 0 -62 2 -66 5 -5 3 -11 1 -13 -4 -1 -5 -23 -6
-48 -2 -25 4 -58 4 -75 1 -16 -3 -49 -3 -73 1 -23 3 -42 3 -42 -1 0 -9 -57 -6
-66 3 -3 3 -18 1 -34 -3 -20 -6 -30 -5 -34 3 -2 7 -5 7 -5 2 -1 -6 -16 -9 -33
-8 -60 3 -93 4 -151 3 -32 0 -62 2 -66 5 -5 3 -11 1 -13 -4 -1 -5 -23 -6 -48
-2 -25 4 -58 4 -75 1 -16 -3 -49 -3 -73 1 -23 3 -42 3 -42 -1 0 -9 -57 -6 -66
3 -3 3 -19 1 -35 -3 -16 -5 -42 -5 -58 0 -16 4 -32 6 -35 3 -7 -7 -243 -6
-255 2 -6 3 -11 2 -11 -2 0 -5 -15 -7 -32 -6 -60 3 -93 4 -151 3 -32 0 -62 2
-67 5 -6 3 -10 1 -10 -5 0 -7 -8 -9 -20 -5 -10 3 -43 6 -72 5 -29 0 -61 -1
-71 -1 -22 0 -22 -2 10 -52 15 -23 37 -60 48 -82 18 -34 161 -288 232 -410 12
-22 33 -59 45 -82 12 -24 25 -43 30 -43 4 0 5 -7 2 -15 -4 -8 -2 -15 4 -15 5
0 18 -17 28 -37 9 -21 37 -71 61 -111 23 -41 43 -75 43 -77 0 -1 47 -85 105
-186 58 -101 105 -186 105 -190 0 -3 -413 -5 -917 -5 -505 1 -928 -1 -941 -3
-17 -3 -20 -6 -12 -17 6 -7 40 -59 75 -116 35 -57 69 -108 74 -115 6 -7 11
-14 11 -17 0 -3 25 -44 55 -91 30 -46 55 -89 55 -95 0 -5 3 -10 8 -10 4 0 12
-9 17 -19 24 -48 90 -151 96 -151 4 0 10 -11 13 -25 4 -14 11 -25 16 -25 6 0
10 -5 10 -10 0 -12 52 -94 63 -98 4 -2 7 -8 7 -13 0 -8 152 -259 173 -284 17
-21 167 -268 167 -275 0 -4 9 -15 20 -25 11 -10 20 -22 20 -26 0 -10 103 -173
113 -177 4 -2 7 -8 7 -13 0 -8 39 -71 126 -206 19 -28 34 -56 34 -62 0 -6 4
-11 9 -11 5 0 11 -8 15 -17 6 -19 27 -54 37 -63 3 -3 23 -34 44 -70 21 -36 43
-66 47 -68 4 -2 8 -8 8 -14 0 -5 15 -33 34 -61 89 -138 126 -198 126 -207 0
-6 5 -10 10 -10 6 0 10 -7 10 -15 0 -8 5 -15 11 -15 5 0 7 -4 4 -10 -3 -5 -2
-10 3 -10 5 0 21 -21 36 -47 35 -64 50 -87 57 -93 3 -3 9 -12 12 -20 4 -8 15
-27 25 -41 25 -39 103 -164 152 -244 24 -38 46 -72 49 -75 3 -3 13 -18 21 -35
8 -16 17 -32 21 -35 3 -3 16 -23 29 -45 13 -22 26 -42 29 -45 4 -3 12 -15 19
-27 31 -56 38 -68 54 -87 10 -11 18 -23 18 -28 0 -4 25 -46 55 -93 30 -46 55
-89 55 -94 0 -5 4 -11 8 -13 7 -3 221 -341 361 -571 25 -39 48 -73 53 -75 4
-2 8 -7 8 -12 0 -11 102 -173 115 -182 5 -4 6 -8 2 -8 -4 0 3 -15 17 -33 15
-19 26 -39 26 -45 0 -7 5 -12 10 -12 6 0 10 -7 10 -15 0 -8 4 -15 9 -15 5 0
11 -8 15 -17 3 -10 23 -45 45 -78 22 -33 44 -67 47 -75 4 -8 28 -46 52 -85 25
-38 56 -87 68 -107 13 -21 36 -57 51 -79 15 -23 32 -50 38 -60 9 -17 280 -451
305 -489 52 -79 90 -142 90 -150 0 -4 4 -10 8 -12 4 -1 19 -21 32 -43 13 -22
38 -62 55 -90 132 -208 205 -327 205 -334 0 -5 3 -11 8 -13 7 -3 101 -148 115
-178 8 -17 211 -339 224 -355 5 -5 28 -41 51 -80 93 -152 160 -258 172 -272 5
-7 10 -15 10 -18 0 -3 18 -33 40 -66 22 -33 40 -65 40 -70 0 -5 3 -9 8 -9 7 0
13 -9 42 -66 8 -16 23 -38 32 -48 10 -11 18 -26 18 -33 0 -7 5 -13 10 -13 6 0
10 -6 10 -13 0 -7 9 -23 20 -35 11 -12 20 -25 20 -30 0 -5 9 -19 20 -32 11
-13 20 -29 20 -37 0 -7 5 -13 10 -13 6 0 10 -6 10 -13 0 -27 36 -47 83 -47
l46 0 50 76 c28 42 51 79 51 84 0 5 4 10 8 12 4 2 80 111 167 243 88 132 163
245 167 250 4 6 31 46 60 90 29 44 54 82 57 85 9 8 30 43 41 67 5 13 14 23 20
23 5 0 10 5 10 11 0 7 16 34 35 60 19 27 35 54 35 60 0 22 20 -5 76 -103 31
-57 72 -128 89 -158 18 -30 49 -86 71 -125 21 -38 44 -79 51 -90 6 -11 19 -33
28 -50 8 -16 21 -39 28 -50 6 -11 43 -76 81 -145 38 -69 76 -133 84 -142 8
-10 13 -18 9 -18 -3 0 17 -37 44 -82 27 -46 49 -86 49 -90 0 -5 22 -8 50 -8
l49 0 36 62 c20 35 40 70 45 78 37 58 170 282 170 286 0 3 11 20 25 38 14 18
25 36 25 40 0 4 16 32 35 62 19 30 35 59 35 64 0 6 4 10 8 10 5 0 18 19 31 43
28 54 50 91 86 147 16 25 34 54 40 65 50 91 78 135 87 135 5 0 7 4 4 9 -3 5 2
19 12 32 9 14 22 33 29 44 37 60 79 131 83 140 18 36 115 191 122 193 4 2 6 7
3 12 -2 4 4 18 15 30 11 13 20 29 20 37 0 7 5 13 10 13 6 0 10 7 10 15 0 8 3
15 8 15 4 0 13 15 21 32 8 18 17 35 20 38 4 3 68 109 144 235 76 127 143 237
148 245 51 85 155 260 166 280 8 14 38 65 68 114 30 49 55 93 55 97 0 5 5 9
10 9 6 0 10 5 10 10 0 6 18 39 40 73 22 34 40 56 40 49 0 -7 13 -32 28 -55 16
-23 40 -62 53 -87 13 -25 33 -58 45 -75 12 -16 24 -37 27 -45 4 -8 38 -66 77
-129 38 -63 70 -116 70 -118 0 -2 18 -31 40 -64 22 -33 40 -62 40 -64 0 -2 36
-63 80 -135 44 -72 80 -136 80 -141 0 -5 5 -9 10 -9 6 0 10 -6 10 -14 0 -8 3
-16 8 -18 4 -1 16 -20 27 -41 11 -21 70 -120 130 -220 61 -100 115 -190 120
-199 30 -53 320 -534 325 -538 3 -3 14 -21 24 -40 9 -19 44 -78 77 -130 32
-52 69 -114 81 -137 12 -24 26 -43 30 -43 4 0 8 -5 8 -11 0 -6 25 -51 55 -100
30 -49 55 -93 55 -99 0 -5 4 -10 8 -10 4 0 18 -19 30 -42 42 -79 71 -123 82
-123 6 0 27 29 47 65 19 36 48 86 64 113 16 26 29 51 29 56 0 5 6 16 14 23 7
8 24 34 36 59 21 39 196 352 219 389 6 8 40 70 77 136 56 100 70 119 81 108 7
-7 13 -14 13 -17 0 -2 54 -93 120 -202 66 -109 120 -200 120 -202 0 -2 14 -24
30 -48 17 -24 30 -46 30 -49 0 -6 63 -109 71 -116 3 -3 12 -20 20 -38 8 -17
17 -32 21 -32 5 0 8 -7 8 -15 0 -8 3 -15 8 -15 4 0 13 -15 21 -32 8 -18 17
-35 21 -38 3 -3 26 -40 50 -82 42 -72 46 -76 62 -61 10 9 18 22 18 29 0 7 6
19 13 26 7 7 46 65 87 128 41 63 78 117 82 118 5 2 8 7 8 12 0 8 59 102 80
127 6 7 15 24 22 38 6 14 14 25 18 25 4 0 12 11 18 25 7 14 17 31 22 38 13 15
116 171 121 183 10 23 143 219 151 222 4 2 8 8 8 13 0 6 17 36 39 67 21 31 39
61 39 66 0 5 4 12 9 15 8 5 51 69 222 331 30 47 61 95 67 107 7 12 17 28 24
35 19 22 80 119 80 128 0 5 3 10 8 12 9 4 119 169 139 208 4 8 12 20 17 27 30
34 36 43 36 51 0 5 7 15 15 22 8 7 12 16 9 21 -3 5 0 9 6 9 5 0 18 16 27 35 9
19 20 35 25 35 4 0 8 4 8 8 0 5 26 49 59 98 32 49 98 150 146 224 48 74 92
137 96 138 5 2 7 7 4 12 -2 4 4 15 15 25 11 10 20 22 20 27 0 5 5 14 10 21 6
7 31 44 55 82 25 39 50 77 55 85 6 8 62 94 124 190 63 96 119 180 125 187 6 7
11 17 11 23 0 5 5 10 10 10 6 0 10 4 10 10 0 8 101 166 171 267 16 23 29 46
29 52 0 6 4 11 9 11 5 0 13 9 16 20 3 11 12 26 19 33 7 7 32 44 57 82 24 39
67 105 96 148 29 43 53 80 53 82 0 2 29 47 65 100 36 52 65 98 65 101 0 3 5
10 10 17 6 7 25 35 43 62 17 28 37 56 43 62 7 7 18 26 26 43 7 16 16 30 20 30
5 0 8 5 8 10 0 6 5 16 10 23 13 14 300 450 300 454 0 4 63 100 78 118 4 6 41
62 81 125 41 63 78 117 83 118 4 2 8 8 8 13 0 9 69 119 81 129 3 3 14 21 25
40 10 19 27 43 37 54 9 11 17 26 17 33 0 7 3 13 8 13 4 0 18 20 32 45 14 25
28 45 32 45 5 0 8 7 8 15 0 8 5 15 10 15 6 0 10 7 10 15 0 8 5 15 11 15 5 0 7
5 4 10 -3 6 -2 10 3 10 5 0 15 12 23 28 8 15 17 29 20 32 5 4 129 194 154 237
6 9 14 22 18 27 18 24 237 359 237 363 0 3 14 22 30 43 17 21 30 41 30 44 0 3
16 29 35 56 19 27 35 54 35 60 0 5 4 10 9 10 5 0 14 14 21 30 7 17 15 30 19
30 4 0 15 17 26 38 11 20 25 41 32 45 7 4 13 12 13 17 0 9 49 86 171 267 27
40 49 77 49 82 0 5 3 11 8 13 4 2 41 55 82 118 41 63 78 116 83 118 4 2 7 8 7
13 0 6 209 332 270 419 59 86 93 149 73 137 -8 -5 -78 -10 -283 -23 -47 -2
-114 -7 -150 -10 -36 -3 -96 -7 -135 -9 -38 -3 -108 -7 -155 -10 -92 -7 -181
-12 -300 -19 -41 -3 -75 -5 -75 -6 0 0 -31 -3 -70 -5 -93 -5 -236 -14 -310
-20 -33 -3 -103 -8 -155 -10 -143 -7 -234 -15 -247 -20 -7 -2 -13 0 -13 6 0 9
73 144 132 244 10 17 24 41 30 55 7 14 15 27 18 30 3 3 11 16 17 30 14 28 43
80 88 155 17 27 41 71 55 97 14 26 57 102 95 170 39 67 72 127 74 133 2 5 7
12 10 15 4 3 13 19 21 35 8 17 16 33 18 38 2 4 -1042 7 -2320 7 l-2325 0 -43
-82z"/>
  </g>
</svg>
